<svg xmlns="http://www.w3.org/2000/svg" width="24" height="24" viewBox="0 0 24 24">
  <g id="vuesax_linear_box-tick" data-name="vuesax/linear/box-tick" transform="translate(-428 -188)">
    <g id="box-tick">
      <g id="Group">
        <path id="Vector" d="M8,3.911a3.86,3.86,0,0,1-.54,2.07,3.784,3.784,0,0,1-.77.96,3.969,3.969,0,0,1-6.07-.81A3.892,3.892,0,0,1,0,4.081,3.969,3.969,0,0,1,1.431.931,4,4,0,0,1,8,3.911Z" transform="translate(442.999 201.999)" fill="none" stroke="#000" stroke-linecap="round" stroke-linejoin="round" stroke-width="1.5"/>
        <path id="Vector-2" data-name="Vector" d="M0,1.06l1.01.96L3.1,0" transform="translate(445.44 204.97)" fill="none" stroke="#000" stroke-linecap="round" stroke-linejoin="round" stroke-width="1.5"/>
      </g>
      <g id="Group-2" data-name="Group">
        <g id="Group-3" data-name="Group">
          <path id="Vector-3" data-name="Vector" d="M0,0,8.83,5.11,17.6.03" transform="translate(431.17 195.44)" fill="none" stroke="#000" stroke-linecap="round" stroke-linejoin="round" stroke-width="1.5"/>
          <path id="Vector-4" data-name="Vector" d="M0,9.07V0" transform="translate(440 200.54)" fill="none" stroke="#000" stroke-linecap="round" stroke-linejoin="round" stroke-width="1.5"/>
        </g>
        <path id="Vector-5" data-name="Vector" d="M19.22,7.17v5.66a.66.66,0,0,1-.01.14,3.921,3.921,0,0,0-2.6-.97,4,4,0,0,0-4,4,3.921,3.921,0,0,0,.58,2.06,2.827,2.827,0,0,0,.32.45l-1.83,1.01a4.7,4.7,0,0,1-4.14,0L2.2,16.56A4.719,4.719,0,0,1,0,12.83V7.17A4.719,4.719,0,0,1,2.2,3.44L7.54.48a4.7,4.7,0,0,1,4.14,0l5.34,2.96A4.719,4.719,0,0,1,19.22,7.17Z" transform="translate(430.39 190)" fill="none" stroke="#000" stroke-linecap="round" stroke-linejoin="round" stroke-width="1.5"/>
      </g>
      <path id="Vector-6" data-name="Vector" d="M0,0H24V24H0Z" transform="translate(428 188)" fill="none" opacity="0"/>
    </g>
  </g>
</svg>
